grf
version=1
nRows=21
nColumns=28
inDegrees=no
endheader
time	ground_force_1_vx	ground_force_1_vy	ground_force_1_vz	ground_force_1_px	ground_force_1_py	ground_force_1_pz	ground_moment_1_mx	ground_moment_1_my	ground_moment_1_mz	ground_force_2_vx	ground_force_2_vy	ground_force_2_vz	ground_force_2_px	ground_force_2_py	ground_force_2_pz	ground_moment_2_mx	ground_moment_2_my	ground_moment_2_mz	ground_force_3_vx	ground_force_3_vy	ground_force_3_vz	ground_force_3_px	ground_force_3_py	ground_force_3_pz	ground_moment_3_mx	ground_moment_3_my	ground_moment_3_mz
      0.00000000	      0.60644807	      0.32777435	      1.97883312	    337.67355574	  -1282.39643586	      2.05597916	      0.06389423	      0.23104237	    126.59877951	      0.38855462	      0.19355352	      2.01235194	     95.19159504	  -1512.72153082	      0.32189084	     -0.01199854	     -0.15517637	    185.94372366	      1.62129907	     -0.81369751	      4.70960073	    478.83172633	   -240.83223690	      0.30037939	     -0.13951737	      1.02488440	    499.05736149
      0.01000000	      0.32042741	      0.49064537	      1.77392451	    309.42965366	  -1257.30476447	      2.02444160	      0.10995433	      0.39759628	    217.86135010	      0.57576588	      0.23382550	      1.56603604	     62.73366152	  -1419.34840780	      0.39771945	     -0.02227401	     -0.28806840	    345.18470246	      1.46554894	     -0.72456303	      4.79961746	    463.70516271	   -295.15717118	      0.40771447	     -0.10718565	      0.78737798	    383.40594658
      0.02000000	      0.44444036	      0.39643870	      1.54805808	    244.54944004	  -1258.75025233	      2.05982456	      0.08735174	      0.31586503	    173.07702845	      0.37289541	      0.44942844	      1.72492032	     86.44252235	  -1508.97089453	      0.32445631	     -0.01981499	     -0.25626602	    307.07676204	      1.55669605	     -0.86894459	      4.58855732	    499.53891983	   -282.89291783	      0.39254585	     -0.14246487	      1.04653656	    509.60066708
      0.03000000	      0.37048140	      0.61721315	      1.85198782	    279.53669009	  -1247.18944441	      2.02106811	      0.10683793	      0.38632734	    211.68657883	      0.27449705	      0.29274246	      1.84156519	     51.50383978	  -1566.75283653	      0.27398080	     -0.01079561	     -0.13961889	    167.30161032	      1.53481099	     -0.73088592	      4.97062601	    459.69742761	   -287.43106833	      0.39072742	     -0.10663019	      0.78329761	    381.41905261
      0.04000000	      0.25842631	      0.46061936	      1.56945746	    266.25348621	  -1201.04834136	      1.94356475	      0.11314630	      0.40913850	    224.18586545	      0.33342524	      0.33902425	      1.51188743	     17.77210415	  -1552.46566103	      0.28372730	     -0.01798425	     -0.23258913	    278.70536847	      1.41038091	     -0.72821887	      4.44973913	    500.50073585	   -329.30063583	      0.48811951	     -0.09072461	      0.66645636	    324.52435801
      0.05000000	      0.44418067	      0.48762722	      1.42527198	    265.24108439	  -1330.17711145	      2.17973531	      0.08681294	      0.31391670	    172.00945026	      0.46621300	      0.27203242	      1.92477860	     85.68692574	  -1487.67469925	      0.34217996	     -0.01534897	     -0.19850728	    237.86599644	      1.65983440	     -0.61648545	      4.23902535	    442.70933677	   -272.39919380	      0.35510813	     -0.15023313	      1.10360159	    537.38792150
      0.06000000	      0.27742895	      0.46928710	      1.89064504	    305.96026275	  -1230.35623195	      1.97701161	      0.08869291	      0.32071471	    175.73439135	      0.38112686	      0.18034896	      2.37359616	    203.93064880	  -1580.60678392	      0.27225497	     -0.01374848	     -0.17780818	    213.06281325	      1.49968079	     -0.70595306	      4.79439229	    508.07034995	   -303.61028753	      0.43747694	     -0.14030468	      1.03066796	    501.87360660
      0.07000000	      0.64093860	      0.58305758	      2.01935716	    297.56292363	  -1191.08690331	      1.90958333	      0.08200727	      0.29653935	    162.48759501	      0.35792660	     -0.08751187	      2.09027598	    117.71773731	  -1602.41035141	      0.24849602	     -0.00278833	     -0.03606134	     43.21134694	    -40.32517783	     79.18290627	   -165.76015629	    451.19398387	   -489.71636340	      0.80377146	      0.37353928	     -2.74399225	  -1336.15998785
      0.08000000	      0.12205210	      0.47376834	      1.86499470	    289.51913334	  -1213.26143051	      1.95411146	      0.12302786	      0.44487033	    243.76498926	      0.26407765	      0.92796663	     -0.18692421	 944723.29507586	-767173.02429871	   -577.69294506	     51.04953558	    660.22047660	-791124.64875772	   -187.72181008	    317.81612740	  -1057.75283416	    438.83971465	   -505.51014432	      0.83275242	      0.14529229	     -1.06730658	   -519.71442191
      0.09000000	      0.40512586	     -0.02475374	      1.91102345	    341.18654397	  -1269.20570414	      2.03013311	      0.02653776	      0.09596090	     52.58140439	      0.45628659	      0.23504254	      2.66026778	    195.30221929	  -1577.49629291	      0.27429401	     -0.01593693	     -0.20611137	    246.97778182	    -74.79980265	    102.99637122	  -1559.17865330	    420.32220013	   -491.82079317	      0.79946263	     -0.50513891	      3.71071354	   1806.89539636
      0.10000000	      0.20207652	      0.28628095	      1.26909337	    266.38640265	  -1115.33546375	      1.78707194	      0.12230164	      0.44224429	    242.32605922	      0.27240872	      0.03708095	      1.48665677	     71.89057943	  -1502.81210793	      0.32865703	     -0.01194897	     -0.15453525	    185.17548240	     87.04424160	    104.29626035	  -1778.10560682	    406.47163156	   -503.68304172	      0.81995133	      1.29887474	     -9.54143896	  -4646.10968701
      0.11000000	      0.26405293	      0.38637103	      1.72288286	    253.74952761	  -1227.98503576	      1.99903487	      0.10648174	      0.38503935	    210.98083365	      0.33182807	      0.70759402	      1.63510383	     38.76455627	  -1452.40356110	      0.36858713	     -0.03188247	     -0.41233396	    494.08882331	     40.75906670	    381.92188206	  -1951.13571844	    407.07131086	   -531.24319564	      0.87671763	      4.14832721	    -30.47330860	 -14838.67735322
      0.12000000	      0.16809911	      0.27550264	      1.51150116	    268.91473229	  -1211.30384995	      1.96093790	      0.10977446	      0.39694586	    217.50496017	      0.44466155	      0.23523314	      2.12331209	    143.55051309	  -1502.28614219	      0.33372002	     -0.01317107	     -0.17034066	    204.11469087	     37.13714487	    328.60835201	  -1984.30062859	    406.57249297	   -543.78824328	      0.90234119	      2.63422451	    -19.35082078	  -9422.69150522
      0.13000000	      0.42690145	      0.30558740	      1.98967559	    294.52548655	  -1227.27563498	      1.97716064	      0.08161792	      0.29513146	    161.71614718	      0.11661605	      0.30517477	      2.22095784	    153.20647906	  -1579.05365801	      0.27027799	     -0.00825531	     -0.10676537	    127.93411077	     -3.53469263	    311.69141614	  -2179.21172221	    407.59535278	   -549.01145800	      0.91335375	      1.75732918	    -12.90921175	  -6286.01346115
      0.14000000	      0.27737320	      0.34510030	      1.25297447	    235.28088148	  -1186.43104609	      1.93252007	      0.11353206	      0.41053338	    224.95018775	      0.55699373	      0.32384589	      1.74062726	      6.36444666	  -1386.41497645	      0.42156614	     -0.02798202	     -0.36188975	    433.64286933	    -12.43020284	    255.50753193	  -2349.31518608	    407.06989849	   -550.38335157	      0.91602423	      0.90350275	     -6.63706518	  -3231.85348973
      0.15000000	      0.44436186	      0.36715677	      1.26925884	    168.34747425	  -1244.17081699	      2.07167617	      0.12812129	      0.46328822	    253.85700106	      0.23095321	      0.54302805	      1.75005086	     51.23721753	  -1404.22241873	      0.40960077	     -0.02430071	     -0.31427959	    376.59288426	    -30.10733914	    169.51077635	  -2455.74810846	    407.47608961	   -551.43667488	      0.91830093	      0.29728327	     -2.18382118	  -1063.39020558
      0.16000000	      0.31504281	      0.38018024	      1.31095099	    230.37240757	  -1211.15879851	      1.98012544	      0.11563427	      0.41813503	    229.11548284	      0.66538092	      0.45379002	      2.36957446	    139.77422426	  -1575.14524917	      0.27267294	     -0.01866856	     -0.24143933	    289.31032869	    -39.63384554	     93.46887375	  -2523.69621734	    407.57353107	   -552.80207120	      0.92113221	      0.25824589	     -1.89705543	   -923.75244690
      0.17000000	      0.45533166	      0.26103859	      1.19900483	    197.61928430	  -1152.82462681	      1.89019622	      0.12610442	      0.45599520	    249.86081678	      0.51529673	      0.51689007	      1.69272558	     71.14149605	  -1510.12891426	      0.32250257	     -0.02393066	     -0.30949376	    370.85814381	    -20.62307034	     43.11251239	  -2504.91513941	    407.13697198	   -557.46645140	      0.93058912	      0.99872141	     -7.33653449	  -3572.45317739
      0.18000000	      0.52225001	      0.40757786	      0.97343316	    130.87011790	  -1200.56305218	      2.01100691	      0.15351566	      0.55511460	    304.17291139	      0.40838175	      0.34896104	      2.05938828	    120.49706027	  -1490.36512736	      0.34218093	     -0.01441743	     -0.18645971	    223.42971546	    -19.63479430	    -13.71974152	  -2412.58879016	    407.84308460	   -563.83285905	      0.94386084	      0.75730994	     -5.56314347	  -2708.91789696
      0.19000000	      0.29130094	      0.18933229	      1.49061989	    240.07316975	  -1243.53046923	      2.03430767	      0.09670855	      0.34969936	    191.61642158	      0.59884232	      0.27680294	      2.26902899	    192.39719159	  -1537.53086327	      0.30745907	     -0.02002297	     -0.25895588	    310.29994267	    -51.95984748	    -45.57076003	  -2299.24080121	    410.37070832	   -571.61320145	      0.96054549	     -0.45362932	      3.33232787	   1622.64422198
      0.20000000	      0.44526700	      0.00447795	      1.50669863	    269.52000178	  -1173.19600473	      1.89108572	      0.05664224	      0.20481907	    112.22982375	      0.69954926	      0.38961806	      1.92503993	     67.37611028	  -1564.23072479	      0.27710979	     -0.01941557	     -0.25110034	    300.88686922	    -53.74947018	    -96.55545179	  -2153.41668367	    411.39231882	   -578.71897449	      0.97542380	     -1.37784309	     10.12153470	   4928.58159194
